HIERARCHY
ROOT mixamorig:Hips
{
	OFFSET 0.000000 201.639420 0.000000
	CHANNELS 6 Xposition Yposition Zposition Xrotation Yrotation Zrotation
	JOINT mixamorig:Spine
	{
		OFFSET 0.006200 19.524994 -2.481800
		CHANNELS 3 Xrotation Yrotation Zrotation
		JOINT mixamorig:Spine1
		{
			OFFSET -0.000900 22.835007 -2.825400
			CHANNELS 3 Xrotation Yrotation Zrotation
			JOINT mixamorig:Spine2
			{
				OFFSET -0.020600 26.552490 -3.193300
				CHANNELS 3 Xrotation Yrotation Zrotation
				JOINT mixamorig:Neck
				{
					OFFSET -0.060000 30.701813 1.352200
					CHANNELS 3 Xrotation Yrotation Zrotation
					JOINT mixamorig:Head
					{
						OFFSET -0.087200 22.547607 3.670900
						CHANNELS 3 Xrotation Yrotation Zrotation
						JOINT mixamorig:HeadTop_End
						{
							OFFSET -0.830600 40.355194 7.893500
							CHANNELS 3 Xrotation Yrotation Zrotation
							End Site
							{
								OFFSET 0.000000 30.592346 0.000000
							}
						}
						JOINT mixamorig:RightEye
						{
							OFFSET -6.302100 18.118591 16.197100
							CHANNELS 3 Xrotation Yrotation Zrotation
							End Site
							{
								OFFSET 0.000000 30.592346 0.000000
							}
						}
						JOINT mixamorig:LeftEye
						{
							OFFSET 6.741500 18.382690 16.401899
							CHANNELS 3 Xrotation Yrotation Zrotation
							End Site
							{
								OFFSET 0.000000 30.592346 0.000000
							}
						}
					}
				}
				JOINT mixamorig:LeftShoulder
				{
					OFFSET 11.924900 18.230499 1.425400
					CHANNELS 3 Xrotation Yrotation Zrotation
					JOINT mixamorig:LeftArm
					{
						OFFSET 25.435989 -0.697632 -5.229300
						CHANNELS 3 Xrotation Yrotation Zrotation
						JOINT mixamorig:LeftForeArm
						{
							OFFSET 54.684776 0.000000 0.000000
							CHANNELS 3 Xrotation Yrotation Zrotation
							JOINT mixamorig:LeftHand
							{
								OFFSET 55.098175 0.000000 0.000000
								CHANNELS 3 Xrotation Yrotation Zrotation
								JOINT mixamorig:LeftHandMiddle1
								{
									OFFSET 23.369751 0.000000 0.000000
									CHANNELS 3 Xrotation Yrotation Zrotation
									JOINT mixamorig:LeftHandMiddle2
									{
										OFFSET 6.378677 0.000000 0.000000
										CHANNELS 3 Xrotation Yrotation Zrotation
										JOINT mixamorig:LeftHandMiddle3
										{
											OFFSET 6.148331 0.000000 0.000000
											CHANNELS 3 Xrotation Yrotation Zrotation
											JOINT mixamorig:LeftHandMiddle4
											{
												OFFSET 6.582504 0.000000 0.000000
												CHANNELS 3 Xrotation Yrotation Zrotation
												End Site
												{
													OFFSET -1.168900 6.395691 1.028606
												}
											}
										}
									}
								}
								JOINT mixamorig:LeftHandThumb1
								{
									OFFSET 7.235672 -3.848206 5.434273
									CHANNELS 3 Xrotation Yrotation Zrotation
									JOINT mixamorig:LeftHandThumb2
									{
										OFFSET 6.568451 -3.792297 3.792300
										CHANNELS 3 Xrotation Yrotation Zrotation
										JOINT mixamorig:LeftHandThumb3
										{
											OFFSET 6.063080 -3.500519 3.500518
											CHANNELS 3 Xrotation Yrotation Zrotation
											JOINT mixamorig:LeftHandThumb4
											{
												OFFSET 4.793182 -2.767334 2.767349
												CHANNELS 3 Xrotation Yrotation Zrotation
												End Site
												{
													OFFSET 0.101639 6.054260 1.275483
												}
											}
										}
									}
								}
								JOINT mixamorig:LeftHandIndex1
								{
									OFFSET 23.101074 -0.309540 4.992809
									CHANNELS 3 Xrotation Yrotation Zrotation
									JOINT mixamorig:LeftHandIndex2
									{
										OFFSET 6.226883 0.000000 0.000000
										CHANNELS 3 Xrotation Yrotation Zrotation
										JOINT mixamorig:LeftHandIndex3
										{
											OFFSET 6.094330 0.000000 0.000000
											CHANNELS 3 Xrotation Yrotation Zrotation
											JOINT mixamorig:LeftHandIndex4
											{
												OFFSET 5.482605 0.000000 0.000000
												CHANNELS 3 Xrotation Yrotation Zrotation
												End Site
												{
													OFFSET -1.427902 5.233032 0.797164
												}
											}
										}
									}
								}
								JOINT mixamorig:LeftHandRing1
								{
									OFFSET 22.299240 0.021149 -3.964172
									CHANNELS 3 Xrotation Yrotation Zrotation
									JOINT mixamorig:LeftHandRing2
									{
										OFFSET 6.321869 0.000000 0.000000
										CHANNELS 3 Xrotation Yrotation Zrotation
										JOINT mixamorig:LeftHandRing3
										{
											OFFSET 5.899796 0.000000 0.000000
											CHANNELS 3 Xrotation Yrotation Zrotation
											JOINT mixamorig:LeftHandRing4
											{
												OFFSET 6.517899 0.000000 0.000000
												CHANNELS 3 Xrotation Yrotation Zrotation
												End Site
												{
													OFFSET -1.637299 6.232208 0.980890
												}
											}
										}
									}
								}
								JOINT mixamorig:LeftHandPinky1
								{
									OFFSET 20.463791 -0.302338 -8.562233
									CHANNELS 3 Xrotation Yrotation Zrotation
									JOINT mixamorig:LeftHandPinky2
									{
										OFFSET 6.908646 0.000000 0.000000
										CHANNELS 3 Xrotation Yrotation Zrotation
										JOINT mixamorig:LeftHandPinky3
										{
											OFFSET 4.622849 0.000000 0.000000
											CHANNELS 3 Xrotation Yrotation Zrotation
											JOINT mixamorig:LeftHandPinky4
											{
												OFFSET 5.216080 0.000000 0.000000
												CHANNELS 3 Xrotation Yrotation Zrotation
												End Site
												{
													OFFSET -0.606308 5.116241 0.814926
												}
											}
										}
									}
								}
							}
						}
					}
				}
				JOINT mixamorig:RightShoulder
				{
					OFFSET -12.001300 18.284088 1.348900
					CHANNELS 3 Xrotation Yrotation Zrotation
					JOINT mixamorig:RightArm
					{
						OFFSET -25.308500 -0.751312 -5.164599
						CHANNELS 3 Xrotation Yrotation Zrotation
						JOINT mixamorig:RightForeArm
						{
							OFFSET -54.684429 0.000000 0.000000
							CHANNELS 3 Xrotation Yrotation Zrotation
							JOINT mixamorig:RightHand
							{
								OFFSET -55.150291 0.000000 0.000000
								CHANNELS 3 Xrotation Yrotation Zrotation
								JOINT mixamorig:RightHandMiddle1
								{
									OFFSET -23.317566 0.000000 0.000000
									CHANNELS 3 Xrotation Yrotation Zrotation
									JOINT mixamorig:RightHandMiddle2
									{
										OFFSET -6.378403 0.000000 0.000000
										CHANNELS 3 Xrotation Yrotation Zrotation
										JOINT mixamorig:RightHandMiddle3
										{
											OFFSET -6.148193 0.000000 0.000000
											CHANNELS 3 Xrotation Yrotation Zrotation
											JOINT mixamorig:RightHandMiddle4
											{
												OFFSET -6.583389 0.000000 0.000000
												CHANNELS 3 Xrotation Yrotation Zrotation
												End Site
												{
													OFFSET 1.171692 6.395905 1.029786
												}
											}
										}
									}
								}
								JOINT mixamorig:RightHandThumb1
								{
									OFFSET -7.190521 -3.860474 5.435846
									CHANNELS 3 Xrotation Yrotation Zrotation
									JOINT mixamorig:RightHandThumb2
									{
										OFFSET -6.567429 -3.791718 3.791708
										CHANNELS 3 Xrotation Yrotation Zrotation
										JOINT mixamorig:RightHandThumb3
										{
											OFFSET -6.062469 -3.500153 3.500166
											CHANNELS 3 Xrotation Yrotation Zrotation
											JOINT mixamorig:RightHandThumb4
											{
												OFFSET -4.792618 -2.767029 2.767022
												CHANNELS 3 Xrotation Yrotation Zrotation
												End Site
												{
													OFFSET -0.100327 6.053253 1.276754
												}
											}
										}
									}
								}
								JOINT mixamorig:RightHandIndex1
								{
									OFFSET -23.048981 -0.310791 4.992554
									CHANNELS 3 Xrotation Yrotation Zrotation
									JOINT mixamorig:RightHandIndex2
									{
										OFFSET -6.227539 0.000000 0.000000
										CHANNELS 3 Xrotation Yrotation Zrotation
										JOINT mixamorig:RightHandIndex3
										{
											OFFSET -6.095047 0.000000 0.000000
											CHANNELS 3 Xrotation Yrotation Zrotation
											JOINT mixamorig:RightHandIndex4
											{
												OFFSET -5.484772 0.000000 0.000000
												CHANNELS 3 Xrotation Yrotation Zrotation
												End Site
												{
													OFFSET 1.420593 5.237305 0.797056
												}
											}
										}
									}
								}
								JOINT mixamorig:RightHandRing1
								{
									OFFSET -22.246323 0.020569 -3.963762
									CHANNELS 3 Xrotation Yrotation Zrotation
									JOINT mixamorig:RightHandRing2
									{
										OFFSET -6.322128 0.000000 0.000000
										CHANNELS 3 Xrotation Yrotation Zrotation
										JOINT mixamorig:RightHandRing3
										{
											OFFSET -5.900024 0.000000 0.000000
											CHANNELS 3 Xrotation Yrotation Zrotation
											JOINT mixamorig:RightHandRing4
											{
												OFFSET -6.518356 0.000000 0.000000
												CHANNELS 3 Xrotation Yrotation Zrotation
												End Site
												{
													OFFSET 1.636398 6.232697 0.982186
												}
											}
										}
									}
								}
								JOINT mixamorig:RightHandPinky1
								{
									OFFSET -20.411011 -0.303314 -8.561701
									CHANNELS 3 Xrotation Yrotation Zrotation
									JOINT mixamorig:RightHandPinky2
									{
										OFFSET -6.907349 0.000000 0.000000
										CHANNELS 3 Xrotation Yrotation Zrotation
										JOINT mixamorig:RightHandPinky3
										{
											OFFSET -4.623840 0.000000 0.000000
											CHANNELS 3 Xrotation Yrotation Zrotation
											JOINT mixamorig:RightHandPinky4
											{
												OFFSET -5.218353 0.000000 0.000000
												CHANNELS 3 Xrotation Yrotation Zrotation
												End Site
												{
													OFFSET 0.602097 5.118835 0.816273
												}
											}
										}
									}
								}
							}
						}
					}
				}
			}
		}
	}
	JOINT mixamorig:LeftUpLeg
	{
		OFFSET 18.168400 -13.561905 -0.039000
		CHANNELS 3 Xrotation Yrotation Zrotation
		JOINT mixamorig:LeftLeg
		{
			OFFSET 0.577358 -80.825211 -3.695000
			CHANNELS 3 Xrotation Yrotation Zrotation
			JOINT mixamorig:LeftFoot
			{
				OFFSET -0.577356 -83.370262 -6.520700
				CHANNELS 3 Xrotation Yrotation Zrotation
				JOINT mixamorig:LeftToeBase
				{
					OFFSET 0.750401 -20.798306 25.135401
					CHANNELS 3 Xrotation Yrotation Zrotation
					JOINT mixamorig:LeftToe_End
					{
						OFFSET -0.000500 0.001200 19.917799
						CHANNELS 3 Xrotation Yrotation Zrotation
						End Site
						{
							OFFSET 0.000000 19.917805 0.000000
						}
					}
				}
			}
		}
	}
	JOINT mixamorig:RightUpLeg
	{
		OFFSET -18.162500 -13.585098 -0.041000
		CHANNELS 3 Xrotation Yrotation Zrotation
		JOINT mixamorig:RightLeg
		{
			OFFSET -0.595024 -80.945297 -3.631900
			CHANNELS 3 Xrotation Yrotation Zrotation
			JOINT mixamorig:RightFoot
			{
				OFFSET 0.595024 -83.218193 -6.561200
				CHANNELS 3 Xrotation Yrotation Zrotation
				JOINT mixamorig:RightToeBase
				{
					OFFSET -0.753601 -20.807106 25.115000
					CHANNELS 3 Xrotation Yrotation Zrotation
					JOINT mixamorig:RightToe_End
					{
						OFFSET 0.000299 0.001700 19.918200
						CHANNELS 3 Xrotation Yrotation Zrotation
						End Site
						{
							OFFSET 0.000000 19.918203 0.000000
						}
					}
				}
			}
		}
	}
}
MOTION
Frames: 4
Frame Time: 0.033333
-375.353607 156.219086 392.516479 -3.664444 -142.858597 -4.596772 -0.403130 0.147944 1.825178 -0.807532 0.192616 3.090228 -0.807532 0.192603 3.090228 -5.711994 11.276430 2.951620 -67.282616 62.709756 51.496604 -0.000000 0.000000 -0.000001 -0.000000 0.000000 -0.000001 -0.000000 0.000000 -0.000001 -0.102365 0.994915 9.658888 0.192280 23.542820 -72.632525 -0.000075 -111.052531 -0.000051 -4.083730 -14.058434 0.777220 0.366174 2.219622 -18.733918 0.926523 3.454793 -30.017066 0.201684 1.657547 -13.873975 0.000002 0.000001 -0.000000 -1.540052 3.690189 6.142355 3.939045 7.948713 0.746815 -0.579474 1.574998 2.538714 0.000002 0.000003 -0.000005 0.366807 2.221450 -18.749923 0.925553 3.453155 -30.001073 0.201685 1.657542 -13.873976 -0.000004 -0.000001 0.000002 0.573467 2.755741 -23.506839 1.232997 3.936888 -34.768740 0.362066 2.207471 -18.627319 -0.000001 -0.000000 0.000001 2.283505 6.550629 -24.010533 1.308573 -0.041671 -36.066452 0.396601 2.307303 -19.503977 -0.000001 -0.000000 -0.000001 -0.014810 0.939075 0.137770 -42.999330 -0.097304 60.817801 0.000006 69.860780 -0.000001 19.234706 10.944362 5.258082 0.424743 -2.397276 20.091843 0.424741 -2.397274 20.091915 0.424755 -2.397265 20.091848 0.000003 -0.000001 -0.000000 -5.526908 -11.358897 -19.065189 7.250567 -9.101978 10.984618 2.301558 -9.655342 4.020359 -0.000002 0.000000 -0.000000 0.424749 -2.397272 20.091855 0.424749 -2.397259 20.091917 0.424752 -2.397270 20.091848 0.000002 -0.000000 -0.000002 0.583249 -2.792353 23.592069 0.583258 -2.792345 23.592133 0.583255 -2.792323 23.592081 0.000003 0.000001 -0.000002 0.720264 -3.086756 26.263382 0.720284 -3.086761 26.263479 0.720270 -3.086756 26.263394 0.000003 0.000000 -0.000002 -58.649216 -3.854791 41.059177 78.603497 0.963897 -2.481928 -0.752117 3.201260 -3.392380 -11.180478 0.062680 -2.324951 -0.000000 -0.000000 0.000001 -49.350388 -10.994749 11.715728 87.919800 -1.117276 3.145679 -19.170751 8.568513 -15.237474 -16.655964 0.170653 -3.692546 0.000000 -0.000001 0.000000 
-362.222931 170.366348 384.160065 -2.385583 -129.771231 -1.372541 0.065549 -0.775468 1.034514 0.139596 -1.662195 1.757998 0.139596 -1.662212 1.757997 -5.434679 10.872797 2.941208 -60.306855 57.280190 42.827516 0.000003 0.000002 0.000001 0.000003 0.000002 0.000001 0.000003 0.000002 0.000001 -0.089779 0.604160 11.814174 -24.110639 27.916370 -63.647015 0.000047 -104.537691 0.000017 -3.867054 -13.452419 1.308319 0.366185 2.219655 -18.733921 0.926530 3.454802 -30.017049 0.201693 1.657533 -13.873988 0.000001 -0.000000 0.000000 -1.540057 3.690187 6.142360 3.939041 7.948712 0.746813 -0.579476 1.574995 2.538720 0.000000 -0.000004 0.000001 0.366815 2.221470 -18.749925 0.925552 3.453147 -30.001083 0.201674 1.657561 -13.873969 -0.000001 -0.000001 0.000000 0.573480 2.755780 -23.506842 1.233001 3.936893 -34.768760 0.362074 2.207463 -18.627326 0.000004 -0.000001 -0.000000 2.283504 6.550648 -24.010535 1.308587 -0.041695 -36.066455 0.396601 2.307307 -19.503974 -0.000002 -0.000000 0.000001 0.011864 1.042685 -0.077436 -56.917933 10.705752 69.670580 -0.000015 67.409548 0.000005 19.423072 11.683194 4.914036 0.445635 -2.453563 20.585412 0.445626 -2.453579 20.585459 0.445633 -2.453563 20.585396 -0.000003 0.000000 -0.000001 -5.521495 -11.358573 -19.035292 7.321442 -9.473087 10.798196 2.337317 -10.027183 3.883964 -0.000001 -0.000001 -0.000002 0.445632 -2.453564 20.585403 0.445636 -2.453563 20.585466 0.445634 -2.453564 20.585394 0.000002 -0.000000 -0.000001 0.604578 -2.840611 24.026010 0.604591 -2.840607 24.026066 0.604573 -2.840589 24.026003 0.000000 -0.000000 0.000001 0.741330 -3.129002 26.651806 0.741341 -3.129011 26.651890 0.741335 -3.128995 26.651794 0.000000 -0.000000 0.000001 -55.070401 1.787482 28.846884 68.757472 0.949335 -1.927698 9.128773 0.152679 -0.023959 -18.340072 0.255790 -4.632664 -0.000000 -0.000002 0.000000 -45.995003 -8.742890 5.352190 80.147823 -0.658072 2.692995 -1.667702 6.735456 -9.394375 -27.169244 1.035350 -7.754980 0.000001 -0.000002 0.000000 
-348.105408 186.394806 376.609467 -0.381067 -115.936983 3.447897 0.600575 -1.815449 -0.146813 1.221073 -3.652778 0.222863 1.221074 -3.652804 0.222863 -5.126326 10.441122 2.935995 -54.690165 50.979074 35.308588 -0.000000 0.000001 0.000000 -0.000000 0.000001 0.000000 -0.000000 0.000001 0.000000 -0.041846 0.176835 14.057848 -49.119336 27.219480 -48.562939 -0.001226 -99.220109 -0.001201 -3.637452 -11.298822 2.069348 0.366183 2.219646 -18.733927 0.926528 3.454801 -30.017049 0.201688 1.657532 -13.873981 -0.000000 -0.000000 0.000000 -1.540043 3.690194 6.142340 3.939045 7.948710 0.746811 -0.579472 1.575001 2.538719 0.000001 -0.000001 0.000002 0.366803 2.221464 -18.749935 0.925570 3.453167 -30.001083 0.201678 1.657527 -13.873980 -0.000000 0.000001 0.000001 0.573487 2.755780 -23.506849 1.233003 3.936877 -34.768764 0.362066 2.207467 -18.627324 0.000000 -0.000002 0.000000 2.283503 6.550642 -24.010533 1.308576 -0.041693 -36.066459 0.396600 2.307312 -19.503983 0.000001 -0.000000 0.000001 0.042046 0.935834 -0.326365 -75.169961 16.097796 83.295263 0.000008 65.557638 0.000010 19.665525 13.131456 4.353319 0.491770 -2.572943 21.637479 0.491767 -2.572954 21.637532 0.491766 -2.572945 21.637466 -0.000001 -0.000000 -0.000000 -5.505548 -11.357499 -18.947662 7.394589 -9.861337 10.609943 2.375604 -10.420830 3.745224 0.000001 0.000001 0.000001 0.491771 -2.572940 21.637478 0.491774 -2.572940 21.637544 0.491771 -2.572943 21.637459 0.000002 0.000001 -0.000000 0.654747 -2.950407 25.018768 0.654732 -2.950396 25.018831 0.654725 -2.950382 25.018754 0.000001 0.000002 0.000002 0.793898 -3.231456 27.599323 0.793909 -3.231470 27.599428 0.793895 -3.231448 27.599324 0.000000 -0.000002 0.000000 -48.355434 4.907001 15.359878 59.272388 0.682828 -1.514308 12.360549 -0.853094 2.853552 -4.721248 0.002245 -0.450438 -0.000001 -0.000001 -0.000000 -39.210477 -7.751049 -0.225773 69.780587 -0.783376 2.109433 9.880599 7.209364 -11.947626 -23.107906 1.170684 -5.913465 -0.000000 -0.000002 0.000001 
-332.730804 201.526001 369.515259 5.763906 -102.581129 12.640869 1.083207 -2.762877 -1.299828 2.198863 -5.510901 -1.281669 2.198863 -5.510883 -1.281670 -4.792758 9.988681 2.931676 -50.557084 44.670790 29.497617 -0.000002 0.000003 0.000001 -0.000002 0.000003 0.000001 -0.000002 0.000003 0.000001 0.035108 -0.225626 16.258079 -69.636511 19.253019 -32.439785 -0.005802 -94.742592 -0.005881 -3.747019 -7.776707 2.677339 0.366187 2.219642 -18.733911 0.926525 3.454828 -30.017039 0.201680 1.657524 -13.873975 0.000001 0.000003 0.000000 -1.540044 3.690197 6.142348 3.939041 7.948714 0.746808 -0.579472 1.574998 2.538716 -0.000003 0.000001 0.000000 0.366797 2.221469 -18.749928 0.925558 3.453147 -30.001094 0.201686 1.657534 -13.873979 -0.000001 0.000000 -0.000001 0.573471 2.755779 -23.506839 1.233002 3.936882 -34.768757 0.362070 2.207454 -18.627328 -0.000000 -0.000000 0.000001 2.283511 6.550657 -24.010533 1.308585 -0.041681 -36.066462 0.396597 2.307285 -19.503984 -0.000001 -0.000002 -0.000001 0.056460 0.629928 -0.459543 -93.336249 14.650961 96.627683 -0.000017 64.342643 0.000020 19.745167 14.288490 4.067992 0.488864 -2.565605 21.572598 0.488854 -2.565616 21.572686 0.488859 -2.565602 21.572615 -0.000001 0.000000 -0.000001 -5.479713 -11.355531 -18.805517 7.469374 -10.265212 10.420021 2.415870 -10.834320 3.604423 0.000000 -0.000000 0.000000 0.488852 -2.565594 21.572591 0.488856 -2.565611 21.572683 0.488864 -2.565596 21.572603 -0.000000 -0.000001 0.000001 0.648314 -2.936640 24.893956 0.648314 -2.936641 24.894016 0.648324 -2.936628 24.893963 -0.000000 -0.000001 -0.000000 0.784310 -3.213068 27.428728 0.784322 -3.213100 27.428827 0.784312 -3.213060 27.428718 0.000001 0.000001 0.000000 -39.319521 4.334484 2.660954 48.596403 0.728026 -1.029383 13.226328 -1.799567 4.712688 -3.032399 0.000002 0.000001 -0.000001 0.000000 0.000001 -31.674388 -8.013656 -5.334397 58.323887 -0.767736 1.499532 20.946548 7.842216 -14.285595 -15.652152 1.068924 -4.614448 -0.000001 -0.000000 0.000000 
